<svg id="visual" viewBox="0 0 900 600" width="900" height="600" xmlns="http://www.w3.org/2000/svg" xmlns:xlink="http://www.w3.org/1999/xlink" version="1.1"><rect x="0" y="0" width="900" height="600" fill="#009473"></rect><g fill="none" stroke="#ebcbd0" stroke-width="4"><circle r="33" cx="517" cy="118"></circle><circle r="1" cx="669" cy="562"></circle><circle r="26" cx="94" cy="192"></circle><circle r="0" cx="868" cy="331"></circle><circle r="21" cx="640" cy="107"></circle><circle r="4" cx="635" cy="469"></circle><circle r="28" cx="240" cy="62"></circle><circle r="7" cx="669" cy="31"></circle><circle r="6" cx="351" cy="220"></circle><circle r="9" cx="348" cy="450"></circle><circle r="31" cx="415" cy="367"></circle><circle r="17" cx="215" cy="234"></circle><circle r="11" cx="155" cy="147"></circle><circle r="14" cx="66" cy="477"></circle><circle r="27" cx="302" cy="128"></circle><circle r="19" cx="750" cy="469"></circle><circle r="31" cx="746" cy="381"></circle><circle r="25" cx="320" cy="596"></circle><circle r="28" cx="650" cy="311"></circle><circle r="27" cx="192" cy="394"></circle><circle r="2" cx="616" cy="237"></circle><circle r="19" cx="11" cy="25"></circle><circle r="8" cx="234" cy="509"></circle><circle r="10" cx="519" cy="203"></circle><circle r="21" cx="524" cy="444"></circle><circle r="12" cx="864" cy="119"></circle><circle r="3" cx="873" cy="564"></circle><circle r="18" cx="432" cy="250"></circle><circle r="24" cx="752" cy="578"></circle><circle r="23" cx="873" cy="491"></circle><circle r="3" cx="110" cy="70"></circle><circle r="23" cx="523" cy="282"></circle><circle r="28" cx="39" cy="145"></circle><circle r="31" cx="722" cy="239"></circle><circle r="27" cx="98" cy="394"></circle><circle r="19" cx="25" cy="378"></circle><circle r="26" cx="827" cy="199"></circle><circle r="6" cx="260" cy="439"></circle><circle r="11" cx="564" cy="598"></circle><circle r="20" cx="313" cy="517"></circle><circle r="14" cx="438" cy="122"></circle><circle r="3" cx="337" cy="53"></circle><circle r="0" cx="714" cy="156"></circle><circle r="20" cx="148" cy="319"></circle><circle r="31" cx="781" cy="71"></circle><circle r="6" cx="92" cy="590"></circle><circle r="14" cx="278" cy="351"></circle><circle r="8" cx="497" cy="524"></circle><circle r="2" cx="420" cy="570"></circle><circle r="18" cx="544" cy="29"></circle><circle r="9" cx="347" cy="327"></circle><circle r="2" cx="187" cy="596"></circle><circle r="23" cx="35" cy="302"></circle><circle r="12" cx="574" cy="362"></circle><circle r="12" cx="827" cy="409"></circle><circle r="5" cx="438" cy="476"></circle><circle r="28" cx="870" cy="22"></circle><circle r="10" cx="879" cy="261"></circle><circle r="18" cx="666" cy="401"></circle><circle r="24" cx="593" cy="165"></circle><circle r="15" cx="18" cy="558"></circle><circle r="1" cx="152" cy="3"></circle><circle r="4" cx="789" cy="309"></circle><circle r="11" cx="151" cy="512"></circle><circle r="26" cx="372" cy="153"></circle><circle r="10" cx="451" cy="20"></circle><circle r="3" cx="228" cy="133"></circle><circle r="2" cx="801" cy="521"></circle><circle r="1" cx="296" cy="275"></circle><circle r="9" cx="78" cy="2"></circle><circle r="27" cx="490" cy="377"></circle><circle r="1" cx="283" cy="4"></circle><circle r="4" cx="223" cy="309"></circle><circle r="5" cx="3" cy="239"></circle><circle r="13" cx="580" cy="528"></circle><circle r="7" cx="799" cy="3"></circle><circle r="3" cx="104" cy="261"></circle><circle r="30" cx="898" cy="186"></circle></g></svg>